<?xml version="1.0" standalone="no"?>
<!DOCTYPE svg PUBLIC "-//W3C//DTD SVG 20010904//EN"
 "http://www.w3.org/TR/2001/REC-SVG-20010904/DTD/svg10.dtd">
<svg version="1.0" xmlns="http://www.w3.org/2000/svg"
 width="700.000000pt" height="700.000000pt" viewBox="0 0 700.000000 700.000000"
 preserveAspectRatio="xMidYMid meet">
<metadata>
Created by potrace 1.11, written by Peter Selinger 2001-2013
</metadata>
<g transform="translate(0.000000,700.000000) scale(0.100000,-0.100000)"
fill="#000000" stroke="none">
<path d="M81 6915 c20 -22 1358 -1469 2974 -3215 2316 -2503 2948 -3180 2984
-3199 68 -36 174 -41 235 -11 154 74 208 297 102 414 -17 19 -1410 1351 -3096
2961 -1686 1610 -3103 2964 -3150 3009 -47 44 -69 63 -49 41z"/>
<path d="M1960 6325 c0 -3 1014 -1120 2254 -2484 2086 -2293 2259 -2480 2308
-2502 65 -29 176 -33 223 -7 46 25 102 86 130 142 30 59 33 138 10 208 -14 41
-242 257 -2470 2346 -1350 1266 -2455 2300 -2455 2297z"/>
<path d="M3591 5765 c26 -28 729 -801 1563 -1720 835 -918 1531 -1680 1547
-1692 74 -54 173 -46 238 18 60 60 75 148 39 222 -9 20 -3261 3075 -3381 3177
l-52 44 46 -49z"/>
<path d="M5292 4937 c57 -62 373 -411 703 -775 517 -571 604 -663 633 -668 41
-8 75 7 98 41 38 59 54 42 -764 804 -420 391 -766 711 -769 711 -2 0 42 -51
99 -113z"/>
<path d="M718 4910 c67 -74 1086 -1196 2265 -2492 2388 -2627 2182 -2413 2322
-2413 86 1 137 25 192 90 72 86 90 188 50 282 -20 47 -241 257 -2452 2329
-1337 1252 -2445 2291 -2464 2308 -19 17 20 -30 87 -104z"/>
<path d="M2614 1790 c1024 -1128 1581 -1733 1608 -1749 58 -34 132 -34 186 1
77 51 112 152 79 230 -11 26 -460 453 -1704 1618 -928 871 -1699 1593 -1712
1604 -14 12 681 -755 1543 -1704z"/>
<path d="M1860 1885 c0 -11 1373 -1521 1398 -1537 40 -27 79 -23 113 11 42 42
39 81 -8 130 -60 62 -1503 1402 -1503 1396z"/>
</g>
</svg>
